<svg xmlns="http://www.w3.org/2000/svg" version="1.0" width="300.000000pt" height="85.000000pt" viewBox="0 0 300.000000 85.000000" preserveAspectRatio="xMidYMid meet">
<g transform="translate(0.000000,85.000000) scale(0.100000,-0.100000)" fill="#000000" stroke="none">
<path d="M582 658 c-23 -29 -18 -76 11 -89 28 -12 77 3 77 25 0 8 6 17 13 20 10 5 10 7 0 12 -7 3 -13 14 -13 25 0 15 -7 19 -39 19 -21 0 -43 -6 -49 -12z"/>
<path d="M1339 628 c0 -7 0 -49 0 -93 1 -78 -16 -188 -18 -122 -2 63 -98 115 -188 101 -91 -14 -156 -108 -133 -195 22 -81 76 -119 169 -119 83 0 111 12 111 49 0 31 -26 46 -51 30 -41 -26 -141 1 -137 36 3 19 11 20 123 20 l120 0 3 -43 c3 -41 22 -51 22 -11 0 10 4 19 9 19 4 0 22 23 39 50 l31 50 -32 0 c-56 0 -66 16 -35 55 29 35 69 106 64 114 -3 5 6 16 20 26 14 9 23 19 20 22 -3 3 -12 0 -21 -7 -13 -10 -15 -9 -15 9 0 19 -6 21 -50 21 -33 0 -50 -4 -51 -12z m-118 -196 c36 -30 19 -50 -46 -54 -60 -3 -85 4 -85 27 0 41 90 59 131 27z m-153 -66 c2 -9 -2 -24 -9 -32 -11 -14 -13 -14 -21 1 -12 20 0 57 15 52 7 -2 13 -11 15 -21z"/>
<path d="M1870 495 c0 -80 -4 -145 -8 -145 -5 0 -17 9 -28 20 -10 12 -26 28 -35 36 -14 14 -13 18 13 46 27 29 38 78 18 78 -5 0 -10 9 -10 20 0 11 -8 24 -17 27 -10 4 -21 10 -24 15 -3 4 -43 13 -90 19 l-84 10 -20 -27 c-11 -15 -35 -47 -52 -71 -18 -24 -33 -45 -33 -48 0 -3 11 -5 25 -5 36 0 32 -24 -15 -79 -38 -46 -39 -50 -38 -119 l2 -72 130 1 c155 1 202 12 232 57 24 35 34 27 34 -29 0 -28 1 -29 50 -29 43 0 50 3 50 19 0 39 -10 51 -31 38 -17 -10 -23 -8 -44 18 -29 36 -30 43 -7 64 11 9 21 23 24 31 3 10 9 6 19 -15 9 -17 21 -29 27 -28 7 2 12 -4 12 -13 0 -13 7 -15 29 -11 29 6 41 -5 41 -39 0 -12 -4 -12 -30 1 -51 26 -54 15 -11 -33 27 -29 36 -32 85 -32 42 0 61 5 75 19 19 19 19 19 24 0 5 -18 17 -19 201 -19 208 0 200 -2 196 49 -2 23 -1 22 40 -10 38 -31 49 -34 118 -37 64 -2 83 1 110 17 32 21 42 41 21 41 -7 0 -17 7 -24 16 -9 13 -16 14 -33 5 -11 -6 -41 -11 -66 -11 -35 0 -48 5 -60 22 -33 46 -25 50 102 47 l117 -3 3 32 c2 22 -2 34 -12 38 -10 4 -16 18 -16 35 0 19 -5 29 -15 29 -9 0 -18 6 -21 14 -7 19 -95 39 -136 31 -18 -4 -50 -18 -70 -31 -21 -13 -42 -24 -48 -24 -12 0 -12 3 -14 -100 l-2 -85 -60 -2 c-96 -4 -96 3 -10 103 47 54 76 97 76 111 0 23 -1 23 -130 23 -71 0 -133 1 -137 3 -5 1 -9 -16 -11 -37 l-3 -39 65 5 c91 8 92 -6 9 -98 -37 -41 -70 -74 -73 -74 -3 0 -11 5 -18 12 -16 16 -16 135 0 140 6 2 -6 22 -27 45 -33 36 -46 43 -91 49 -62 7 -153 -11 -161 -33 -3 -8 -1 -25 5 -38 11 -24 12 -24 48 -9 57 24 124 4 124 -36 0 -14 -13 -18 -76 -23 -58 -4 -82 -11 -98 -26 -13 -12 -26 -18 -29 -14 -4 3 -7 73 -7 155 l0 148 -50 0 -50 0 0 -145z m-90 36 c5 -11 10 -24 10 -30 0 -17 -17 -13 -24 7 -3 9 -9 23 -12 30 -9 20 14 14 26 -7z m-77 -2 c41 -22 46 -40 17 -69 -14 -14 -33 -20 -68 -20 -64 0 -81 14 -75 63 l5 37 50 0 c27 0 59 -5 71 -11z m817 -67 c0 -11 -39 -47 -44 -41 -2 2 -7 14 -10 27 -7 19 -4 22 23 22 17 0 31 -4 31 -8z m-290 -80 c0 -52 -1 -55 -16 -40 -13 13 -14 20 -4 38 9 17 9 29 1 47 -15 32 -14 38 4 23 10 -8 15 -31 15 -68z m561 47 c32 -32 19 -44 -49 -47 -70 -3 -89 13 -57 48 24 27 79 26 106 -1z m-146 -105 c0 -35 -4 -50 -12 -47 -15 6 -26 68 -17 106 6 28 7 29 18 11 6 -10 11 -42 11 -70z m-900 22 c31 -47 -6 -76 -99 -76 -62 0 -76 11 -76 62 l0 38 80 0 c73 0 81 -2 95 -24z m81 -21 c19 -14 18 -15 -6 -35 -30 -24 -44 -26 -36 -4 3 9 6 24 6 35 0 23 10 24 36 4z m348 9 c9 -3 16 -17 16 -31 0 -18 -9 -28 -36 -39 -32 -14 -38 -13 -61 1 -39 26 -28 59 22 66 22 3 41 7 42 8 1 0 8 -2 17 -5z m-618 -92 c-3 -2 -12 -2 -20 1 -19 7 -31 51 -21 74 6 14 11 9 26 -26 11 -24 17 -46 15 -49z m704 6 c0 -9 -34 -11 -43 -2 -3 4 -1 16 5 27 10 20 11 20 24 2 8 -10 14 -22 14 -27z m147 23 c15 -23 8 -31 -29 -31 -30 0 -36 12 -15 35 17 20 30 18 44 -4z"/>
<path d="M200 408 l0 -208 45 0 45 0 0 43 c0 60 11 72 60 68 114 -8 195 44 207 133 3 28 8 45 10 39 3 -7 18 -13 34 -13 l29 0 -2 -102 c-1 -95 -2 -98 -7 -38 -6 57 -25 110 -41 110 -3 0 -5 -54 -5 -120 l0 -120 103 0 c89 0 104 2 109 18 4 9 15 26 25 36 10 11 18 23 18 28 0 19 33 -8 51 -43 19 -39 20 -39 80 -39 57 0 59 1 49 20 -6 11 -15 20 -20 20 -5 0 -12 9 -15 20 -3 11 -13 20 -21 20 -8 0 -14 9 -14 21 0 12 -8 23 -20 26 -11 3 -20 14 -20 24 0 17 54 96 95 140 22 23 20 25 -29 24 -48 -1 -73 -16 -87 -52 -5 -13 -16 -23 -25 -23 -19 0 -64 45 -64 63 0 9 -32 11 -120 9 -87 -2 -120 0 -120 9 0 15 -42 59 -57 59 -7 0 -13 4 -13 10 0 12 -44 18 -172 23 l-108 4 0 -209z m90 159 c0 -2 -11 -18 -25 -37 l-25 -34 0 30 c0 17 3 34 7 37 6 7 43 10 43 4z m220 -53 c22 -20 40 -42 40 -48 0 -7 -16 -28 -37 -47 -26 -24 -34 -28 -28 -14 18 48 16 63 -23 138 -8 16 10 5 48 -29z m-75 -9 c55 -54 16 -115 -72 -115 -57 1 -73 18 -73 77 0 27 3 53 7 56 3 4 31 7 60 7 44 0 58 -5 78 -25z m299 -75 c25 -33 46 -67 46 -74 0 -8 -11 -27 -24 -43 -12 -15 -28 -38 -35 -51 -6 -12 -21 -22 -32 -22 -19 0 -20 6 -18 125 0 69 5 125 9 125 5 0 29 -27 54 -60z m-454 -45 l28 -30 -34 -39 -34 -39 1 84 c0 46 3 77 6 69 3 -8 18 -28 33 -45z m584 -11 c-3 -12 -1 -31 4 -41 9 -17 7 -19 -23 -19 -31 0 -33 2 -32 36 1 19 -2 42 -7 51 -6 14 -3 15 28 5 29 -9 34 -14 30 -32z"/>
<path d="M1410 270 c-12 -16 -30 -30 -40 -30 -15 0 -30 -18 -30 -36 0 -2 23 -4 50 -4 l50 0 0 50 c0 28 -2 50 -4 50 -3 0 -14 -13 -26 -30z"/>
</g>
</svg>